<svg height="512pt" viewBox="0 -30 512.001 512" width="512pt" xmlns="http://www.w3.org/2000/svg"><path d="m227.027344 0h-212.023438c-8.28125 0-15.003906 6.71875-15.003906 15v422c0 8.28125 6.722656 15 15.003906 15h301.035156c8.253907 0 14.953126-6.660156 15.003907-14.910156v-332.089844zm0 0" fill="#d6f3fe"/><path d="m331.042969 105v332.089844c-.050781 8.25-6.75 14.910156-15.003907 14.910156h-150.015624v-452h61.007812zm0 0" fill="#bdecfc"/><path d="m257.03125 211h-181.019531c-8.285157 0-15.003907-6.714844-15.003907-15s6.71875-15 15.003907-15h181.019531c8.285156 0 15.003906 6.714844 15.003906 15s-6.714844 15-15.003906 15zm0 0" fill="#66a9df"/><path d="m272.035156 196c0 8.28125-6.722656 15-15.003906 15h-91.011719v-30h91.011719c8.28125 0 15.003906 6.71875 15.003906 15zm0 0" fill="#4f84cf"/><path d="m257.03125 271h-181.019531c-8.285157 0-15.003907-6.714844-15.003907-15s6.71875-15 15.003907-15h181.019531c8.285156 0 15.003906 6.714844 15.003906 15s-6.714844 15-15.003906 15zm0 0" fill="#66a9df"/><path d="m272.035156 256c0 8.28125-6.722656 15-15.003906 15h-91.011719v-30h91.011719c8.28125 0 15.003906 6.71875 15.003906 15zm0 0" fill="#4f84cf"/><path d="m257.03125 331h-181.019531c-8.285157 0-15.003907-6.714844-15.003907-15s6.71875-15 15.003907-15h181.019531c8.285156 0 15.003906 6.714844 15.003906 15s-6.714844 15-15.003906 15zm0 0" fill="#66a9df"/><path d="m272.035156 316c0 8.28125-6.722656 15-15.003906 15h-91.011719v-30h91.011719c8.28125 0 15.003906 6.71875 15.003906 15zm0 0" fill="#4f84cf"/><path d="m257.03125 391h-181.019531c-8.285157 0-15.003907-6.714844-15.003907-15s6.71875-15 15.003907-15h181.019531c8.285156 0 15.003906 6.714844 15.003906 15s-6.714844 15-15.003906 15zm0 0" fill="#66a9df"/><path d="m272.035156 376c0 8.28125-6.722656 15-15.003906 15h-91.011719v-30h91.011719c8.28125 0 15.003906 6.71875 15.003906 15zm0 0" fill="#4f84cf"/><path d="m424.507812 445.320312-60.007812-90c-1.644531-2.464843-2.519531-5.359374-2.519531-8.320312v-271c0-41.355469 33.648437-75 75.007812-75 41.363281 0 75.011719 33.644531 75.011719 75v271c0 2.960938-.878906 5.855469-2.519531 8.320312l-60.007813 90c-5.917968 8.878907-19.023437 8.914063-24.964844 0zm0 0" fill="#eebb2c"/><path d="m437.058594 1v451c4.988281-.019531 9.640625-2.53125 12.410156-6.679688l60.007812-90c1.652344-2.460937 2.519532-5.359374 2.519532-8.320312v-271c0-41.328125-33.605469-74.960938-74.9375-75zm0 0" fill="#e79b34"/><path d="m512 76c0-41.355469-33.648438-75-75.011719-75-41.359375 0-75.007812 33.644531-75.007812 75v30h150.019531zm0 0" fill="#dd5c60"/><path d="m511.996094 76v30h-74.941406v-105c41.335937.039062 74.941406 33.671875 74.941406 75zm0 0" fill="#d8333c"/><path d="m361.980469 347c0 2.960938.878906 5.855469 2.519531 8.320312l60.007812 90c5.917969 8.878907 19.023438 8.914063 24.964844 0l60.007813-90c1.644531-2.464843 2.519531-5.359374 2.519531-8.320312-6.976562 0-144.046875 0-150.019531 0zm0 0" fill="#f2d2ad"/><path d="m511.996094 347c0 2.960938-.871094 5.859375-2.519532 8.320312l-60.007812 90c-2.769531 4.148438-7.421875 6.660157-12.414062 6.679688v-105zm0 0" fill="#eebf92"/><path d="m331.042969 105-104.015625-105v90c0 8.285156 6.71875 15 15.003906 15zm0 0" fill="#aac3ce"/></svg>