<svg height="368pt" viewBox="0 0 368 368" width="368pt" xmlns="http://www.w3.org/2000/svg"><path d="m360 184c0 17.671875-14.328125 32-32 32s-32-14.328125-32-32 14.328125-32 32-32 32 14.328125 32 32zm0 0" fill="#cce4ff"/><path d="m120 360c35.359375 0 64-28.640625 64-64v-224c0-35.359375-28.640625-64-64-64-30.398438 0-55.839844 21.199219-62.398438 49.601562-28.402343 6.558594-49.601562 32-49.601562 62.398438 0 35.359375 28.640625 64 64 64-35.359375 0-64 28.640625-64 64 0 30.398438 21.199219 55.839844 49.601562 62.398438 6.558594 28.402343 32 49.601562 62.398438 49.601562zm0 0" fill="#cce4ff"/><path d="m240 48h48.808594c3.71875 18.230469 19.871094 32 39.191406 32 22.054688 0 40-17.945312 40-40s-17.945312-40-40-40c-19.3125 0-35.472656 13.769531-39.191406 32h-56.808594c-4.425781 0-8 3.574219-8 8v40h-32v-8c0-39.703125-32.296875-72-72-72-32.105469 0-59.785156 20.769531-68.9375 51.0625-30.292969 9.152344-51.0625 36.832031-51.0625 68.9375 0 27.832031 15.863281 52.015625 39.03125 64-23.167969 11.984375-39.03125 36.167969-39.03125 64 0 32.105469 20.769531 59.785156 51.0625 68.9375 9.152344 30.292969 36.832031 51.0625 68.9375 51.0625 39.703125 0 72-32.296875 72-72v-8h32v40c0 4.425781 3.574219 8 8 8h56.808594c3.71875 18.230469 19.871094 32 39.191406 32 22.054688 0 40-17.945312 40-40s-17.945312-40-40-40c-19.3125 0-35.472656 13.769531-39.191406 32h-48.808594v-128h48.808594c3.71875 18.230469 19.871094 32 39.191406 32 22.054688 0 40-17.945312 40-40s-17.945312-40-40-40c-19.3125 0-35.472656 13.769531-39.191406 32h-48.808594zm88-32c13.230469 0 24 10.769531 24 24s-10.769531 24-24 24-24-10.769531-24-24 10.769531-24 24-24zm0 288c13.230469 0 24 10.769531 24 24s-10.769531 24-24 24-24-10.769531-24-24 10.769531-24 24-24zm0-144c13.230469 0 24 10.769531 24 24s-10.769531 24-24 24-24-10.769531-24-24 10.769531-24 24-24zm-208 192c-26.246094 0-48.703125-17.839844-54.601562-43.398438-.925782-4.152343-1.398438-8.402343-1.398438-12.601562 0-30.871094 25.128906-56 56-56 4.425781 0 8-3.574219 8-8s-3.574219-8-8-8c-39.703125 0-72 32.296875-72 72 0 .855469.113281 1.710938.144531 2.566406-19.34375-9.070312-32.144531-28.40625-32.144531-50.566406 0-30.871094 25.128906-56 56-56h48c4.425781 0 8-3.574219 8-8s-3.574219-8-8-8h-48c-30.871094 0-56-25.128906-56-56 0-22.160156 12.800781-41.496094 32.144531-50.566406-.03125.855468-.144531 1.710937-.144531 2.566406 0 39.703125 32.296875 72 72 72 4.425781 0 8-3.574219 8-8s-3.574219-8-8-8c-30.871094 0-56-25.128906-56-56 0-4.199219.472656-8.449219 1.398438-12.601562 5.898437-25.558594 28.355468-43.398438 54.601562-43.398438 30.871094 0 56 25.128906 56 56v224c0 30.871094-25.128906 56-56 56zm104-80h-32v-80h32zm-32-96v-80h32v80zm0 0" fill="#007aff"/></svg>