<svg height="512" viewBox="0 0 64 64" width="512" xmlns="http://www.w3.org/2000/svg"><path d="m61 60v1h-58v-1a8 8 0 0 1 8-8h42a8 8 0 0 1 8 8z" fill="#003f8a"/><ellipse cx="32" cy="56" fill="#787680" rx="13" ry="5"/><path d="m58 28v10a2.006 2.006 0 0 1 -2 2h-11v-14h11a2.006 2.006 0 0 1 2 2z" fill="#ab2300"/><path d="m16 26v14h-8a2.006 2.006 0 0 1 -2-2v-10a2.006 2.006 0 0 1 2-2z" fill="#ab2300"/><path d="m49 14v3h-34v-2a12 12 0 0 1 20.3-8.67 8.878 8.878 0 0 1 4.7-1.33 9 9 0 0 1 9 9z" fill="#3e3d42"/><path d="m15 17h34v3h-34z" fill="#ffdaaa"/><path d="m15 31h34a0 0 0 0 1 0 0v7a17 17 0 0 1 -17 17 17 17 0 0 1 -17-17v-7a0 0 0 0 1 0 0z" fill="#ffdaaa"/><path d="m52 22v9a5.985 5.985 0 0 1 -3 5.19 5.857 5.857 0 0 1 -3 .81h-28a5.884 5.884 0 0 1 -3-.81 6.046 6.046 0 0 1 -3-5.19v-9a2.006 2.006 0 0 1 2-2h36a2.006 2.006 0 0 1 2 2z" fill="#bdfdff"/><path d="m15 23h2v2h-2z" fill="#fff"/><path d="m15 27h2v2h-2z" fill="#ff5023"/><g fill="#ff6243"><path d="m6 30h3v2h-3z"/><path d="m6 34h3v2h-3z"/><path d="m55 34h3v2h-3z"/><path d="m55 30h3v2h-3z"/></g><path d="m45 35h-7v-2h7a3 3 0 0 0 3-3v-5h2v5a5.006 5.006 0 0 1 -5 5z" fill="#57a4ff"/></svg>