<svg height="512" viewBox="0 0 64 64" width="512" xmlns="http://www.w3.org/2000/svg" xmlns:xlink="http://www.w3.org/1999/xlink"><linearGradient id="linear-gradient" gradientUnits="userSpaceOnUse" x1="10.388" x2="69.927" y1="71.112" y2="11.573"><stop offset="0" stop-color="#003f8a"/><stop offset=".518" stop-color="#00d7df"/><stop offset="1" stop-color="#006df0"/></linearGradient><linearGradient id="linear-gradient-2" x1="30.888" x2="90.427" xlink:href="#linear-gradient" y1="91.612" y2="32.073"/><linearGradient id="linear-gradient-3" x1="-5.319" x2="54.22" xlink:href="#linear-gradient" y1="55.406" y2="-4.133"/><linearGradient id="linear-gradient-4" x1="-10.112" x2="49.427" xlink:href="#linear-gradient" y1="50.612" y2="-8.927"/><linearGradient id="linear-gradient-5" x1="-5.362" x2="54.177" xlink:href="#linear-gradient" y1="55.362" y2="-4.177"/><g id="Setting-3" data-name="Setting"><path d="m60 45a1 1 0 0 0 -1-1h-4a.977.977 0 0 0 -.5.153.977.977 0 0 0 -.5-.153h-3v-1c2.654 0 4-1.01 4-3v-4a4 4 0 0 0 -4-4v-2a1 1 0 0 0 -2 0v2a4 4 0 0 0 -4 4v4c0 1.99 1.346 3 4 3v1h-3a.977.977 0 0 0 -.5.153.977.977 0 0 0 -.5-.153h-4a1 1 0 0 0 -1 1v3a1 1 0 0 0 1 1h1v5a1 1 0 0 0 2 0v-5h1v4a1 1 0 0 0 1 1v3h-2a1 1 0 0 0 -1 1v2h-22v-2a1 1 0 0 0 -1-1h-2v-3a1 1 0 0 0 1-1v-4h1v5a1 1 0 0 0 2 0v-5h1a1 1 0 0 0 1-1v-3a1 1 0 0 0 -1-1h-4a.977.977 0 0 0 -.5.153.977.977 0 0 0 -.5-.153h-3v-1c2.654 0 4-1.01 4-3v-4a4 4 0 0 0 -4-4v-2a1 1 0 0 0 -2 0v2a4 4 0 0 0 -4 4v4c0 1.99 1.346 3 4 3v1h-3a.977.977 0 0 0 -.5.153.977.977 0 0 0 -.5-.153h-4a1 1 0 0 0 -1 1v3a1 1 0 0 0 1 1h1v5a1 1 0 0 0 2 0v-5h1v4a1 1 0 0 0 1 1v3h-2a1 1 0 0 0 -1 1v2h-5a1 1 0 0 0 0 2h56a1 1 0 0 0 0-2h-1v-2a1 1 0 0 0 -1-1h-2v-3a1 1 0 0 0 1-1v-4h1v5a1 1 0 0 0 2 0v-5h1a1 1 0 0 0 1-1zm-13-5v-2h1a1 1 0 0 0 0-2h-1a2 2 0 0 1 2-2h2a2 2 0 0 1 2 2h-1a1 1 0 0 0 0 2h1v2c0 .469 0 1-2 1h-2c-2 0-2-.531-2-1zm-3 7h-2v-1h2zm-24-1h2v1h-2zm-9-6v-2h1a1 1 0 0 0 0-2h-1a2 2 0 0 1 2-2h2a2 2 0 0 1 2 2h-1a1 1 0 0 0 0 2h1v2c0 .469 0 1-2 1h-2c-2 0-2-.531-2-1zm-3 7h-2v-1h2zm39-1h6v6h-6zm-36 0h6v6h-6zm1 8h4v3a1 1 0 0 0 -1 1v2h-2v-2a1 1 0 0 0 -1-1zm-3 6v-1h2v1zm8 0v-1h2v1zm28 0v-1h2v1zm10-1v1h-2v-1zm-3-2a1 1 0 0 0 -1 1v2h-2v-2a1 1 0 0 0 -1-1v-3h4zm6-10h-2v-1h2z" fill="url(#linear-gradient)"/><path d="m62 60h-1a1 1 0 0 0 0 2h1a1 1 0 0 0 0-2z" fill="url(#linear-gradient-2)"/><path d="m14 24a1 1 0 0 0 1-1v-2h2v9a3 3 0 0 0 3 3h24a3 3 0 0 0 3-3v-9h2v6a1 1 0 0 0 2 0v-7a1 1 0 0 0 -1-1h-3v-13a3 3 0 0 0 -3-3h-24a3 3 0 0 0 -3 3v13h-3a1 1 0 0 0 -1 1v3a1 1 0 0 0 1 1zm5-18a1 1 0 0 1 1-1h24a1 1 0 0 1 1 1v24a1 1 0 0 1 -1 1h-24a1 1 0 0 1 -1-1z" fill="url(#linear-gradient-3)"/><path d="m14 28a1 1 0 0 0 1-1v-1a1 1 0 0 0 -2 0v1a1 1 0 0 0 1 1z" fill="url(#linear-gradient-4)"/><g fill="url(#linear-gradient-5)"><path d="m21 21h2.522a9.008 9.008 0 0 0 .362.873l-1.784 1.784a1 1 0 0 0 0 1.414l2.829 2.829a1 1 0 0 0 1.414 0l1.784-1.783a9.008 9.008 0 0 0 .873.362v2.521a1 1 0 0 0 1 1h4a1 1 0 0 0 1-1v-2.522a9.008 9.008 0 0 0 .873-.362l1.784 1.784a1 1 0 0 0 1.414 0l2.829-2.829a1 1 0 0 0 0-1.414l-1.783-1.784a9.008 9.008 0 0 0 .361-.873h2.522a1 1 0 0 0 1-1v-4a1 1 0 0 0 -1-1h-2.522a9.008 9.008 0 0 0 -.362-.873l1.784-1.784a1 1 0 0 0 0-1.414l-2.829-2.829a1 1 0 0 0 -1.414 0l-1.784 1.784a9.008 9.008 0 0 0 -.873-.362v-2.522a1 1 0 0 0 -1-1h-4a1 1 0 0 0 -1 1v2.522a9.008 9.008 0 0 0 -.873.362l-1.784-1.784a1 1 0 0 0 -1.414 0l-2.829 2.829a1 1 0 0 0 0 1.414l1.783 1.784a9.008 9.008 0 0 0 -.362.873h-2.521a1 1 0 0 0 -1 1v4a1 1 0 0 0 1 1zm1-4h2.262a1 1 0 0 0 .967-.75 7 7 0 0 1 .747-1.8 1 1 0 0 0 -.155-1.216l-1.6-1.6 1.414-1.414 1.6 1.6a1 1 0 0 0 1.216.155 7 7 0 0 1 1.8-.747 1 1 0 0 0 .75-.967v-2.261h2v2.262a1 1 0 0 0 .75.967 7 7 0 0 1 1.8.747 1 1 0 0 0 1.216-.155l1.6-1.6 1.414 1.414-1.6 1.6a1 1 0 0 0 -.155 1.216 7 7 0 0 1 .747 1.8 1 1 0 0 0 .967.75h2.26v2h-2.262a1 1 0 0 0 -.967.75 7 7 0 0 1 -.747 1.8 1 1 0 0 0 .155 1.216l1.6 1.6-1.414 1.414-1.6-1.6a1.007 1.007 0 0 0 -1.216-.155 7 7 0 0 1 -1.8.747 1 1 0 0 0 -.75.967v2.26h-1.999v-2.262a1 1 0 0 0 -.75-.967 7 7 0 0 1 -1.8-.747 1.008 1.008 0 0 0 -1.216.155l-1.6 1.6-1.414-1.414 1.6-1.6a1 1 0 0 0 .155-1.216 7 7 0 0 1 -.747-1.8 1 1 0 0 0 -.967-.75h-2.261z"/><path d="m32 21a3 3 0 1 0 -3-3 3 3 0 0 0 3 3zm0-4a1 1 0 1 1 -1 1 1 1 0 0 1 1-1z"/></g></g></svg>