<svg width="48" height="48" viewBox="0 0 48 48" fill="none" xmlns="http://www.w3.org/2000/svg">
<path d="M6.51291 15.6516H6.38996C4.81373 15.6516 3.52855 16.9408 3.52855 18.513V30.9711C3.52855 32.5494 4.81373 33.8345 6.38996 33.8345H6.515C8.09123 33.8345 9.37641 32.5452 9.37641 30.9711V18.5129C9.37432 16.9408 8.08715 15.6516 6.51291 15.6516Z" fill="#0F9D58"/>
<path d="M10.7456 35.7797C10.7456 37.2268 11.9282 38.4053 13.3753 38.4053H16.1855V45.1345C16.1855 46.7148 17.4748 48 19.0469 48H19.1699C20.7482 48 22.0354 46.7128 22.0354 45.1345V38.4053H25.9626V45.1345C25.9626 46.7148 27.256 48 28.8281 48H28.9491C30.5273 48 31.8125 46.7128 31.8125 45.1345V38.4053H34.6247C36.0697 38.4053 37.2524 37.2268 37.2524 35.7797V16.1086H10.7456V35.7797Z" fill="#0F9D58"/>
<path d="M30.6011 4.1796L32.8332 0.734092C32.9767 0.516776 32.9131 0.219641 32.6938 0.078153C32.4766 -0.0653305 32.1794 -0.00584662 32.0379 0.217551L29.7238 3.78202C27.9878 3.07078 26.0487 2.67112 24.001 2.67112C21.9513 2.67112 20.0163 3.07078 18.2762 3.78202L15.9662 0.217551C15.8248 -0.00584662 15.5255 -0.0653305 15.3062 0.078153C15.0869 0.219546 15.0233 0.516776 15.1668 0.734092L17.4009 4.1796C13.3732 6.15349 10.6574 9.87371 10.6574 14.1412C10.6574 14.4035 10.6738 14.6618 10.6964 14.918H37.3076C37.3302 14.6618 37.3445 14.4035 37.3445 14.1412C37.3446 9.87371 34.6267 6.15349 30.6011 4.1796ZM17.8314 10.3492C17.1242 10.3492 16.5503 9.77935 16.5503 9.0702C16.5503 8.36105 17.1242 7.7932 17.8314 7.7932C18.5426 7.7932 19.1125 8.36096 19.1125 9.0702C19.1125 9.77945 18.5385 10.3492 17.8314 10.3492ZM30.1686 10.3492C29.4615 10.3492 28.8875 9.77935 28.8875 9.0702C28.8875 8.36105 29.4615 7.7932 30.1686 7.7932C30.8778 7.7932 31.4476 8.36096 31.4476 9.0702C31.4476 9.77935 30.8778 10.3492 30.1686 10.3492Z" fill="#0F9D58"/>
<path d="M41.6079 15.6516H41.4891C39.9128 15.6516 38.6236 16.9408 38.6236 18.513V30.9711C38.6236 32.5494 39.9149 33.8345 41.4891 33.8345H41.61C43.1883 33.8345 44.4714 32.5452 44.4714 30.9711V18.5129C44.4714 16.9408 43.1842 15.6516 41.6079 15.6516Z" fill="#0F9D58"/>
</svg>
