<svg width="48" height="48" viewBox="0 0 48 48" fill="none" xmlns="http://www.w3.org/2000/svg">
<g clip-path="url(#clip0)">
<path d="M44.2759 39.0497V35.587C44.2759 33.3055 42.4194 31.4491 40.1379 31.4491H32.6897V33.1043H40.1379C41.5066 33.1043 42.6207 34.2183 42.6207 35.587V39.0497C41.6598 39.3924 40.9655 40.3028 40.9655 41.3801C40.9655 42.7488 42.0796 43.8629 43.4483 43.8629C44.8169 43.8629 45.931 42.7488 45.931 41.3801C45.931 40.302 45.2368 39.3924 44.2759 39.0497ZM43.4483 42.2069C42.9916 42.2069 42.6207 41.8359 42.6207 41.3793C42.6207 40.9227 42.9916 40.5517 43.4483 40.5517C43.9049 40.5517 44.2759 40.9227 44.2759 41.3793C44.2759 41.8359 43.9049 42.2069 43.4483 42.2069Z" fill="#0F9D58"/>
<path d="M45.1034 24.8276C44.0261 24.8276 43.1157 25.5218 42.773 26.4828H40.1379V28.1379H42.773C43.1157 29.0989 44.0261 29.7931 45.1034 29.7931C46.4721 29.7931 47.5862 28.679 47.5862 27.3104C47.5862 25.9417 46.4721 24.8276 45.1034 24.8276ZM45.1034 28.1379C44.6468 28.1379 44.2759 27.767 44.2759 27.3104C44.2759 26.8537 44.6468 26.4828 45.1034 26.4828C45.5601 26.4828 45.931 26.8537 45.931 27.3104C45.931 27.767 45.5601 28.1379 45.1034 28.1379Z" fill="#0F9D58"/>
<path d="M25.2414 31.4483H31.0345V33.1034H25.2414V31.4483Z" fill="#0F9D58"/>
<path d="M25.2414 26.4828H38.4828V28.1379H25.2414V26.4828Z" fill="#0F9D58"/>
<path d="M42.773 19.8621H28.5517V21.5172H42.773C43.1157 22.4782 44.0261 23.1724 45.1034 23.1724C46.4721 23.1724 47.5862 22.0583 47.5862 20.6897C47.5862 19.321 46.4721 18.2069 45.1034 18.2069C44.0261 18.2069 43.1157 18.9011 42.773 19.8621ZM45.1034 19.8621C45.5601 19.8621 45.931 20.233 45.931 20.6897C45.931 21.1463 45.5601 21.5172 45.1034 21.5172C44.6468 21.5172 44.2759 21.1463 44.2759 20.6897C44.2759 20.233 44.6468 19.8621 45.1034 19.8621Z" fill="#0F9D58"/>
<path d="M25.2414 14.8965H35.1724V16.5517H25.2414V14.8965Z" fill="#0F9D58"/>
<path d="M44.2759 12.4138V8.9511C45.2368 8.60843 45.931 7.698 45.931 6.62068C45.931 5.25201 44.8169 4.13792 43.4483 4.13792C42.0796 4.13792 40.9655 5.25201 40.9655 6.62068C40.9655 7.698 41.6598 8.60843 42.6207 8.9511V12.4138C42.6207 13.7825 41.5066 14.8965 40.1379 14.8965H36.8276V16.5517H40.1379C42.4194 16.5517 44.2759 14.6953 44.2759 12.4138ZM43.4483 5.7931C43.9049 5.7931 44.2759 6.16406 44.2759 6.62068C44.2759 7.07731 43.9049 7.44827 43.4483 7.44827C42.9916 7.44827 42.6207 7.07731 42.6207 6.62068C42.6207 6.16406 42.9916 5.7931 43.4483 5.7931Z" fill="#0F9D58"/>
<path d="M25.2414 19.8621H26.8966V21.5172H25.2414V19.8621Z" fill="#0F9D58"/>
<path d="M17.7931 0C14.5995 0 12 2.59954 12 5.7931C12 6.81102 12.2675 7.81237 12.7747 8.68885L11.3429 9.51805C10.6899 8.39022 10.3448 7.10237 10.3448 5.7931C10.3448 5.36193 10.3897 4.94168 10.4608 4.53031C7.46727 5.53731 5.37931 8.36759 5.37931 11.5862C5.37931 12.653 5.60682 13.6915 6.05536 14.6723L6.39642 15.417L5.6549 15.7654C2.47104 17.2633 0.413794 20.4953 0.413794 24C0.413794 27.0093 1.93077 29.8145 4.39534 31.5028C5.9014 29.9422 8.00956 28.9655 10.3448 28.9655V30.6207C6.69424 30.6207 3.72414 33.5908 3.72414 37.2414C3.72414 40.892 6.69424 43.8621 10.3448 43.8621C10.6964 43.8621 11.0665 43.8281 11.4755 43.7578L12.1447 43.6418L12.3883 44.2767C13.2422 46.5036 15.4146 48 17.7931 48C20.9867 48 23.5862 45.4005 23.5862 42.2069V5.7931C23.5862 2.59954 20.9867 0 17.7931 0V0ZM10.3448 42.2069C7.60628 42.2069 5.37931 39.9799 5.37931 37.2414H7.03448C7.03448 39.0671 8.51913 40.5517 10.3448 40.5517V42.2069ZM8.93211 20.9321C8.46377 21.4005 8.20474 22.0236 8.20474 22.6875C8.20474 23.351 8.46296 23.9745 8.93211 24.4429L7.76185 25.6131C6.98074 24.8324 6.54957 23.7931 6.54957 22.6875C6.54957 21.5819 6.98074 20.5422 7.76185 19.7619C8.54216 18.9807 9.5819 18.5496 10.6875 18.5496C11.7931 18.5496 12.8324 18.9807 13.6131 19.7619L12.4429 20.9321C11.505 19.9946 9.86961 19.9946 8.93211 20.9321ZM16.9655 32.2759C15.5968 32.2759 14.4828 33.39 14.4828 34.7586C14.4828 36.1273 15.5968 37.2414 16.9655 37.2414V38.8966C14.684 38.8966 12.8276 37.0401 12.8276 34.7586C12.8276 32.4771 14.684 30.6207 16.9655 30.6207V32.2759ZM16.9655 21.5172V19.8621C18.3342 19.8621 19.4483 18.748 19.4483 17.3793C19.4483 16.0106 18.3342 14.8966 16.9655 14.8966V13.2414C19.247 13.2414 21.1034 15.0978 21.1034 17.3793C21.1034 19.6608 19.247 21.5172 16.9655 21.5172ZM17.7931 46.3448V44.6897C19.1618 44.6897 20.2759 43.5756 20.2759 42.2069H21.931C21.931 44.4884 20.0746 46.3448 17.7931 46.3448ZM20.2759 5.7931C20.2759 4.42443 19.1618 3.31034 17.7931 3.31034C16.4244 3.31034 15.3103 4.42443 15.3103 5.7931H13.6552C13.6552 3.51158 15.5116 1.65517 17.7931 1.65517C20.0746 1.65517 21.931 3.51158 21.931 5.7931H20.2759Z" fill="#0F9D58"/>
</g>
<defs>
<clipPath id="clip0">
<rect width="48" height="48" fill="white"/>
</clipPath>
</defs>
</svg>
