<?xml version="1.0" standalone="no"?>
<!DOCTYPE svg PUBLIC "-//W3C//DTD SVG 20010904//EN"
 "http://www.w3.org/TR/2001/REC-SVG-20010904/DTD/svg10.dtd">
<svg version="1.0" xmlns="http://www.w3.org/2000/svg"
 width="1216.000000pt" height="912.000000pt" viewBox="0 0 1216.000000 912.000000"
 preserveAspectRatio="xMidYMid meet">
<metadata>
Created by potrace 1.15, written by Peter Selinger 2001-2017
</metadata>
<g transform="translate(0.000000,912.000000) scale(0.100000,-0.100000)"
fill="#000000" stroke="none">
<path d="M7733 5450 c-143 -30 -213 -152 -213 -371 0 -56 -6 -89 -21 -125 -19
-41 -21 -61 -17 -138 l5 -91 -57 -27 c-101 -49 -134 -144 -146 -427 -4 -92 -3
-202 1 -244 l7 -78 40 46 c29 33 53 49 84 57 26 7 46 19 50 30 18 59 102 73
234 38 41 -11 107 -20 145 -20 l70 0 34 65 c36 71 67 95 124 95 18 0 41 -6 51
-13 23 -17 24 -63 3 -85 -15 -14 -14 -16 5 -26 64 -32 113 -179 73 -219 -19
-20 -138 -24 -226 -7 -41 8 -64 7 -105 -5 -102 -29 -211 -45 -315 -45 l-106 0
-8 -57 c-3 -32 -9 -69 -11 -83 -5 -31 -48 -145 -73 -192 -24 -47 -27 -151 -6
-201 l15 -37 -1183 0 -1184 0 10 -55 10 -55 1209 0 c664 0 1208 -2 1208 -4 0
-1 -18 -93 -40 -202 -23 -109 -53 -265 -69 -346 -27 -144 -27 -147 -8 -152 19
-5 19 -6 -6 -49 -93 -158 -131 -278 -93 -293 46 -18 120 52 185 175 20 38 40
69 46 69 10 0 107 202 193 402 25 57 20 78 77 -335 25 -181 50 -331 56 -333 5
-2 9 -21 9 -42 0 -80 67 -204 117 -216 53 -14 67 55 37 171 -19 71 -19 66 1
315 32 413 35 469 35 646 l0 181 46 7 c26 3 106 6 179 6 140 0 151 -4 168 -53
12 -33 20 -904 9 -911 -5 -3 -32 1 -58 9 -29 9 -90 15 -147 15 -87 0 -98 -2
-95 -17 2 -12 39 -26 148 -55 151 -39 264 -50 288 -26 9 9 12 134 12 500 0
465 -1 490 -20 541 -26 69 -103 144 -180 175 l-55 22 -1 58 c0 36 -8 75 -22
106 -20 44 -22 65 -22 218 0 131 3 176 15 198 35 67 48 161 48 335 0 238 -24
335 -95 388 -32 23 -161 77 -185 77 -6 0 -54 -67 -105 -150 -51 -82 -96 -150
-99 -150 -4 0 -26 29 -49 65 -41 64 -42 66 -38 138 3 66 7 79 43 131 44 64 48
94 31 208 l-8 58 70 72 c38 40 81 90 95 110 24 37 25 37 42 18 27 -30 34 -24
24 21 -12 52 -31 88 -61 116 -49 46 -147 69 -225 53z"/>
<path d="M4166 4846 c-131 -49 -204 -211 -177 -394 6 -41 20 -95 31 -120 l20
-44 28 30 c15 16 46 39 69 50 l41 21 27 -35 c15 -19 46 -49 68 -65 l41 -30 12
61 c19 90 52 144 90 148 25 2 41 -6 82 -43 34 -31 53 -42 58 -34 4 7 7 58 8
113 0 170 -47 273 -149 325 -60 32 -186 40 -249 17z"/>
<path d="M3510 4201 c-5 -11 -10 -80 -9 -158 l0 -138 33 70 c18 39 52 103 75
144 50 88 45 101 -35 101 -42 0 -55 -4 -64 -19z"/>
<path d="M4609 3435 c-35 -19 -76 -34 -91 -35 -15 0 -75 -21 -132 -46 l-105
-46 20 -31 c10 -18 19 -47 19 -64 0 -39 -25 -49 -99 -40 -80 9 -115 33 -153
101 -38 68 -11 58 -223 86 -49 6 -101 14 -115 17 -24 6 -24 5 7 -27 38 -39 68
-114 90 -222 13 -65 18 -76 32 -69 9 5 75 24 146 42 113 29 145 34 245 33 98
-1 135 -6 250 -36 74 -20 142 -39 151 -42 12 -6 17 7 27 67 16 104 47 181 92
228 38 40 40 41 99 37 60 -3 60 -3 38 14 -26 21 -34 21 -75 7 -39 -14 -101 3
-134 36 l-24 24 -65 -34z"/>
<path d="M3415 3362 c-101 -43 -150 -88 -189 -171 -20 -44 -21 -62 -24 -533
-2 -335 0 -494 8 -508 17 -32 119 -27 279 14 73 19 136 37 138 40 3 3 3 12 0
21 -8 20 -141 20 -217 0 -30 -8 -56 -15 -58 -15 -1 0 -1 204 0 453 3 522 2
510 79 515 l47 3 12 62 c14 71 32 112 57 126 32 18 -88 12 -132 -7z"/>
<path d="M9739 2691 c-30 -31 -36 -59 -19 -91 9 -17 5 -19 -33 -25 -24 -4 -93
-2 -152 4 -60 6 -112 11 -116 11 -4 0 -7 -78 -6 -172 2 -188 -1 -201 -57 -237
-14 -9 -39 -36 -56 -60 l-32 -43 99 6 c54 4 179 10 278 15 99 4 181 9 182 9 0
1 -1 10 -4 20 -7 27 50 72 91 72 19 0 55 -9 81 -21 33 -15 57 -19 82 -14 50 9
78 72 78 175 -1 98 -30 161 -119 252 -122 126 -233 163 -297 99z"/>
<path d="M8903 2235 c-18 -8 -58 -19 -90 -24 -60 -12 -93 -33 -93 -61 0 -22
20 -30 74 -30 23 0 47 -5 54 -12 9 -9 12 -8 12 5 0 20 30 37 67 37 32 0 108
-33 137 -58 18 -17 18 -16 0 14 -18 29 -119 144 -126 144 -2 -1 -18 -7 -35
-15z"/>
<path d="M3703 2178 c-27 -9 -33 -17 -44 -62 -17 -72 -33 -100 -79 -137 -30
-25 -40 -39 -40 -62 l0 -29 57 7 c77 9 98 19 152 66 25 23 56 46 69 52 24 11
27 31 16 125 l-7 52 -46 -1 c-25 -1 -60 -6 -78 -11z"/>
<path d="M4704 2134 c-21 -50 -28 -99 -19 -121 4 -10 8 -27 9 -37 1 -14 22
-28 79 -52 44 -19 83 -31 88 -28 12 7 11 49 0 94 -5 19 -12 61 -16 93 -7 63
-16 72 -84 83 -40 6 -41 6 -57 -32z"/>
</g>
</svg>
