<svg width="80" height="80" viewBox="0 0 80 80" fill="none" xmlns="http://www.w3.org/2000/svg">
<rect width="80" height="80" rx="8" fill="#DB4437" fill-opacity="0.25"/>
<path d="M37.1921 24.0952H37.1889C36.6818 24.0994 36.2724 24.5124 36.2717 25.0202C36.2706 25.5277 36.6786 25.9414 37.1864 25.9478H37.1896C37.6967 25.9432 38.1062 25.5305 38.1073 25.0227C38.108 24.5149 37.6999 24.1012 37.1921 24.0952Z" fill="#DB4437"/>
<path d="M17.4546 55.7525C17.4567 57.8224 19.1346 59.5 21.2046 59.5025H58.7046C60.7745 59.5 62.4524 57.8224 62.4546 55.7525V31.3214H17.4546V55.7525ZM44.5192 40.5515C44.1843 40.2667 44.1445 39.7646 44.4293 39.4297C44.7138 39.0955 45.2159 39.055 45.5508 39.3402L50.6975 43.723C50.875 43.8746 50.9773 44.0959 50.9773 44.3292C50.9773 44.5621 50.875 44.7837 50.6975 44.9347L45.5508 49.3175C45.2159 49.6026 44.7138 49.5621 44.4293 49.228C44.1445 48.8935 44.1843 48.3917 44.5192 48.1065L48.9546 44.3292L44.5192 40.5515ZM37.353 51.8352L40.5611 36.6044C40.6513 36.1744 41.0735 35.8992 41.5032 35.9897C41.9333 36.0803 42.2081 36.5025 42.1176 36.9322L38.9098 52.1634C38.8189 52.5934 38.3974 52.8683 37.9673 52.7777C37.5377 52.6872 37.2624 52.2653 37.353 51.8352ZM29.2117 43.723L34.3583 39.3402C34.6932 39.055 35.1953 39.0955 35.4798 39.4297C35.7646 39.7646 35.7248 40.2667 35.3899 40.5515L30.9546 44.3292L35.3906 48.1065C35.7248 48.3917 35.7649 48.8935 35.4801 49.228C35.1957 49.5621 34.6932 49.6026 34.3587 49.3175L29.212 44.9347C29.0345 44.7837 28.9322 44.5621 28.9322 44.3292C28.9322 44.0959 29.0345 43.8746 29.212 43.723H29.2117Z" fill="#DB4437"/>
<path d="M29.4577 24.0707H29.4545C28.9528 24.0834 28.5522 24.4936 28.5519 24.9957C28.5511 25.4975 28.9499 25.9087 29.4517 25.9229H29.4545C29.9563 25.9102 30.3565 25.5 30.3576 24.9986C30.358 24.4964 29.9588 24.0852 29.4574 24.0707H29.4577Z" fill="#DB4437"/>
<path d="M58.7046 20.1744H21.2046C19.1346 20.1765 17.4567 21.8544 17.4546 23.9244V29.7305H62.4546V23.9244C62.4524 21.8544 60.7745 20.1765 58.7046 20.1744ZM21.7202 27.4904H21.7124C20.3207 27.4883 19.1943 26.3587 19.1953 24.967C19.1964 23.5753 20.3246 22.4478 21.7163 22.4478C23.1083 22.4478 24.2369 23.5753 24.2376 24.967C24.239 26.3587 23.1122 27.4883 21.7202 27.4904ZM31.972 25.005C31.9663 26.3917 30.8409 27.5131 29.4546 27.5146H29.4467C28.0728 27.4901 26.9723 26.3679 26.9748 24.9936C26.9766 23.6197 28.0803 22.5011 29.4542 22.4808H29.4627C30.8523 22.4865 31.9748 23.6161 31.972 25.0057V25.005ZM39.7063 25.0295C39.7021 26.4162 38.5767 27.5384 37.1896 27.5387H37.1818C35.798 27.5277 34.6829 26.4016 34.6847 25.0174C34.6868 23.6335 35.8061 22.511 37.19 22.5043H37.1975C38.5874 22.5099 39.7099 23.6396 39.7067 25.0295H39.7063Z" fill="#DB4437"/>
<path d="M21.7234 24.0469H21.7202C21.217 24.0568 20.8139 24.4677 20.8132 24.9712C20.8121 25.4751 21.2138 25.8871 21.7177 25.8991H21.7202C22.2241 25.8885 22.6268 25.478 22.6278 24.9741C22.6285 24.4705 22.2269 24.0586 21.7234 24.0469Z" fill="#DB4437"/>
</svg>
