<svg width="80" height="80" viewBox="0 0 80 80" fill="none" xmlns="http://www.w3.org/2000/svg">
<rect width="80" height="80" rx="8" fill="#0F9D58" fill-opacity="0.25"/>
<path d="M22.5129 31.6516H22.39C20.8137 31.6516 19.5286 32.9408 19.5286 34.513V46.9711C19.5286 48.5494 20.8137 49.8345 22.39 49.8345H22.515C24.0912 49.8345 25.3764 48.5452 25.3764 46.9711V34.5129C25.3743 32.9408 24.0872 31.6516 22.5129 31.6516Z" fill="#0F9D58"/>
<path d="M26.7456 51.7797C26.7456 53.2268 27.9283 54.4053 29.3753 54.4053H32.1855V61.1345C32.1855 62.7148 33.4748 64 35.0469 64H35.1699C36.7482 64 38.0354 62.7128 38.0354 61.1345V54.4053H41.9627V61.1345C41.9627 62.7148 43.256 64 44.8282 64H44.9491C46.5273 64 47.8125 62.7128 47.8125 61.1345V54.4053H50.6247C52.0697 54.4053 53.2525 53.2268 53.2525 51.7797V32.1086H26.7456V51.7797Z" fill="#0F9D58"/>
<path d="M46.6011 20.1796L48.8332 16.7341C48.9767 16.5168 48.9131 16.2196 48.6938 16.0782C48.4766 15.9347 48.1794 15.9942 48.0379 16.2176L45.7238 19.782C43.9878 19.0708 42.0487 18.6711 40.001 18.6711C37.9513 18.6711 36.0163 19.0708 34.2762 19.782L31.9662 16.2176C31.8248 15.9942 31.5255 15.9347 31.3062 16.0782C31.0869 16.2195 31.0233 16.5168 31.1668 16.7341L33.401 20.1796C29.3732 22.1535 26.6574 25.8737 26.6574 30.1412C26.6574 30.4035 26.6738 30.6618 26.6964 30.918H53.3076C53.3302 30.6618 53.3445 30.4035 53.3445 30.1412C53.3446 25.8737 50.6267 22.1535 46.6011 20.1796ZM33.8314 26.3492C33.1242 26.3492 32.5503 25.7794 32.5503 25.0702C32.5503 24.3611 33.1242 23.7932 33.8314 23.7932C34.5426 23.7932 35.1125 24.361 35.1125 25.0702C35.1125 25.7794 34.5386 26.3492 33.8314 26.3492ZM46.1686 26.3492C45.4615 26.3492 44.8875 25.7794 44.8875 25.0702C44.8875 24.3611 45.4615 23.7932 46.1686 23.7932C46.8778 23.7932 47.4476 24.361 47.4476 25.0702C47.4476 25.7794 46.8778 26.3492 46.1686 26.3492Z" fill="#0F9D58"/>
<path d="M57.608 31.6516H57.4891C55.9129 31.6516 54.6236 32.9408 54.6236 34.513V46.9711C54.6236 48.5494 55.9149 49.8345 57.4891 49.8345H57.61C59.1883 49.8345 60.4715 48.5452 60.4715 46.9711V34.5129C60.4715 32.9408 59.1842 31.6516 57.608 31.6516Z" fill="#0F9D58"/>
</svg>
