<svg width="48" height="48" viewBox="0 0 48 48" fill="none" xmlns="http://www.w3.org/2000/svg">
<path d="M27.1663 37.2203L32.1994 23.5594L24.4406 15.8006L10.7797 20.8337L5.7974 41.4071L15.9613 31.2432C15.3014 30.3806 14.9942 29.2994 15.102 28.2186C15.2097 27.1379 15.7244 26.1386 16.5417 25.4233C17.359 24.708 18.4177 24.3303 19.5031 24.3666C20.5886 24.403 21.6196 24.8507 22.3872 25.6191C23.1548 26.3875 23.6014 27.419 23.6367 28.5045C23.6719 29.59 23.293 30.6483 22.5768 31.4648C21.8607 32.2814 20.8608 32.795 19.78 32.9016C18.6991 33.0083 17.6182 32.6999 16.7563 32.0391L6.59278 42.2026L27.1663 37.2203Z" fill="#DB4437"/>
<path d="M21.618 11.3929L27.2102 5.80066L42.1959 20.7864L36.6037 26.3786L21.618 11.3929Z" fill="#DB4437"/>
<path d="M19.3604 31.7973C19.985 31.7973 20.5955 31.6121 21.1148 31.2651C21.6341 30.9182 22.0389 30.425 22.2779 29.848C22.5169 29.271 22.5794 28.636 22.4575 28.0235C22.3357 27.4109 22.0349 26.8483 21.5932 26.4067C21.226 26.0395 20.774 25.7685 20.277 25.6178C19.7801 25.4671 19.2537 25.4413 18.7444 25.5426C18.2351 25.6439 17.7587 25.8693 17.3573 26.1987C16.9559 26.5282 16.6419 26.9515 16.4432 27.4312C16.2445 27.911 16.1672 28.4324 16.2181 28.9491C16.269 29.4659 16.4465 29.9622 16.735 30.3939C17.0235 30.8257 17.414 31.1796 17.872 31.4244C18.33 31.6692 18.8412 31.7973 19.3605 31.7973H19.3604Z" fill="#DB4437"/>
</svg>
